**ABCDEFGHIJKLMNOPQRSTUVWXYZabcdefghijklmnopqrstuvwxyz**************************
**PARASOLID !"#$%&'()*+,-./:;<=>?@[\]^_`{|}~0123456789**************************
**PART1;
MC=AMD64;
MC_MODEL=Intel64 Family 6 Model 61 Stepping 4, GenuineIntel;
MC_ID=unknown;
OS=Windows_NT;
OS_RELEASE=unknown;
FRU=Parasolid Version 28.0, build 174,  7- 3-2015;
APPL=SOLIDWORKS 2016-2015266;
SITE=;
USER=unknown;
FORMAT=text;
GUISE=transmit;
KEY=daolibai;
FILE=daolibai.x_t;
DATE=Mon Mar 05 18:38:27 2018;
**PART2;
SCH=SCH_2800174_28002;
USFLD_SIZE=0;
**PART3;
**END_OF_HEADER*****************************************************************
T51 : TRANSMIT FILE created by modeller version 280017423 SCH_2800174_28002_1300
6200 0 10 255 1 7 2 3 0 0 0 0 0 1e3 1e-8 0 0 0 1 0 1 4 81 255 1 2 7 5 1 0 0 0 0
 0 70 11 CI9 list_type0 0 1 uI10 notransmit0 0 1 lCCCDCCDI12 finger_index0 0 1 d
I12 finger_block1012 0 CZ3 0 4 T1 0 0 1 20 1 6 6 11 255 4 5 0 1 7 8 1 9 0 9 0 12
 30 CCCCCCCCCCCCCDI5 owner1040 0 CCCCCCCCCA13 boundary_mesh1006 0 A16 index_map_
offset0 0 1 dA9 index_map82 0 A17 node_id_index_map82 0 A20 schema_embedding_map
82 0 A5 child12 0 A14 lowest_node_id0 0 1 dZ7 239 10 11 0 0 0 0 1e3 1e-8 4 12 0
 1 0 1 1 13 14 15 16 17 18 19 0 0 0 0 0 0 0 100 255 8 6 4 0 0 0 0 1 .24487572581
22365 .969554474440673 0 -.969554474440673 .2448757258122365 0 .0599894996971612
 .03918619337417845 .0233874399384906 1 3 ?11 9 3 0 1 7 20 1 21 4 0 4 100 20 4 9
 0 0 0 0 1 -.2267787644471615 .973946298312088 0 -.973946298312088 -.22677876444
71615 0 .0579894996971612 .000195402762659329 .03599599919332255 1 3 ?11 21 1 0
 1 12 22 1 0 9 0 0 12 12 223 23 24 0 0 0 0 1e3 1e-8 21 25 7 1 0 1 1 26 27 28 29
 30 31 32 0 0 0 0 0 0 0 100 22 2 21 0 0 1 0 0 0 1 0 0 0 1 .049631085143156 0 .03
42951584599688 1 1 ?81 1 23 223 5 12 33 0 0 0 34 70 24 0 4 T12 0 0 4 20 1 35 35
 13 255 26 94 0 12 0 36 0 0 37 0 50 255 27 89 0 36 38 0 0 +.00835841455400516 .0
15 -.0182892342384718 -1 0 0 0 0 1 31 255 28 139 0 31 39 0 0 -.00835841455400516
 .0075 0 -1 0 0 0 0 1 .0025 29 255 29 70 0 40 41 0 .00835841455400516 0 .0182892
342384718 19 8 CCCCCCCA5 owner12 0 Z30 28 0 12 37 0 42 V0 16 255 31 136 0 ?43 0
 44 28 0 0 12 18 255 32 25 0 45 0 46 47 ?12 17 255 45 0 48 49 50 32 51 52 0 53 +
18 46 22 0 50 32 54 55 ?12 29 47 27 0 32 55 56 .00835841455400516 .015 .01828923
42384718 29 55 24 0 46 57 47 -.00835841455400516 .015 .0182892342384718 29 56 73
 0 58 47 59 .00835841455400516 0 -.0182892342384718 18 58 64 0 60 61 0 56 ?12 29
 59 72 0 61 56 41 -.00835841455400516 0 -.0182892342384718 18 61 63 0 62 63 58 5
9 ?12 29 41 71 0 63 59 29 -.00835841455400516 0 .0182892342384718 18 63 62 0 64
 40 61 41 ?12 17 64 0 65 66 67 63 68 69 0 70 +18 40 61 0 71 72 63 29 ?12 17 71 0
 73 53 70 40 74 75 0 76 +18 72 16 0 77 54 40 78 ?12 17 77 0 79 80 81 72 82 83 0
 49 -18 54 19 0 82 46 72 57 ?12 29 78 18 0 72 0 57 .00835841455400516 .015 -.018
2892342384718 29 57 21 0 54 78 55 -.00835841455400516 .015 -.0182892342384718 17
 82 0 48 50 49 54 77 83 0 81 +15 255 48 3 0 49 84 0 17 50 0 48 45 82 46 85 86 0
 66 +17 49 0 48 82 45 72 87 88 0 89 +16 83 7 0 ?82 86 88 90 0 0 12 17 81 0 79 77
 62 54 67 91 0 85 -15 79 82 0 62 92 0 17 62 0 79 81 80 61 60 93 0 67 +17 67 0 65
 64 85 61 81 91 0 68 +16 91 76 0 ?67 44 94 95 0 0 12 17 85 0 65 67 66 54 50 86 0
 0 -15 65 80 0 64 96 0 17 66 0 65 85 64 46 70 94 0 51 -16 86 10 0 ?50 52 83 97 0
 0 12 16 52 13 0 ?45 98 86 99 0 0 12 30 255 97 11 0 86 90 99 0 +-.00835841455400
516 .015 -.0182892342384718 0 0 1 30 90 8 0 83 100 97 0 +-.00835841455400516 .01
5 -.0182892342384718 -1 0 0 30 99 14 0 52 97 101 0 +-.00835841455400516 .015 .01
82892342384718 1 0 0 30 101 69 0 102 99 103 0 +.00835841455400516 0 -.0182892342
384718 0 0 -1 16 102 57 0 ?104 93 105 101 0 0 12 30 103 68 0 93 101 106 0 +-.008
35841455400516 0 -.0182892342384718 -1 0 0 16 93 53 0 ?62 69 102 103 0 0 12 30 1
06 67 0 69 103 107 0 +-.00835841455400516 0 -.0182892342384718 0 0 1 16 69 49 0
 ?64 75 93 106 0 0 12 30 107 66 0 75 106 108 0 +-.00835841455400516 0 .018289234
2384718 1 0 0 16 75 45 0 ?71 88 69 107 0 0 12 30 108 90 0 98 107 109 0 +.0083584
1455400516 .015 .0182892342384718 0 -1 0 16 98 74 0 ?76 94 52 108 0 0 12 30 109
 91 0 94 108 95 0 +-.00835841455400516 .015 .0182892342384718 0 -1 0 16 94 75 0
 ?70 91 98 109 0 0 12 30 95 92 0 91 109 39 0 +-.00835841455400516 .015 -.0182892
342384718 0 -1 0 30 39 93 0 44 95 28 0 +.00835841455400516 .015 -.01828923423847
18 0 -1 0 16 44 77 0 ?80 31 91 39 0 0 12 17 80 0 79 62 77 58 89 44 0 104 +17 89
 0 110 87 104 72 80 44 0 0 -17 104 0 110 89 76 58 111 102 0 0 +15 110 84 0 104 3
6 0 17 76 0 110 104 87 40 53 98 0 111 +17 111 0 112 74 60 40 104 102 0 0 -15 112
 44 0 111 113 0 17 74 0 112 68 111 63 71 75 0 0 -17 60 0 112 111 68 58 62 93 0 8
0 -17 68 0 112 60 74 61 64 69 0 0 -14 255 113 43 114 ?115 84 112 26 116 -0 0 115
 84 42 81 1 114 220 117 113 118 0 119 120 121 14 115 149 120 ?122 113 123 26 124
 -0 0 122 113 42 14 84 1 119 ?113 125 48 26 126 +0 0 113 125 42 50 116 65 0 113
 126 127 0 +0 0 0 0 1 0 0 0 1 13 42 29 0 0 0 0 0 0 30 36 14 36 85 128 ?92 0 129
 26 27 -0 0 92 0 42 81 1 128 215 117 36 130 0 0 131 132 14 92 83 131 ?96 36 79 2
6 38 -0 0 96 36 42 15 129 138 0 133 36 110 17 133 0 129 133 133 0 43 31 0 0 -17
 43 0 134 43 43 0 133 31 0 0 +15 134 153 0 43 115 0 81 1 131 216 117 92 135 0 12
8 136 137 14 96 81 136 ?125 92 65 26 138 -0 0 125 92 42 50 38 88 0 92 138 27 0 +
-.00835841455400516 .015 -.0182892342384718 0 0 1 1 0 0 50 138 87 0 96 127 38 0
 +-.00835841455400516 .015 -.0182892342384718 1 0 0 0 0 -1 50 127 86 0 125 116 1
38 0 +-.00835841455400516 .015 .0182892342384718 0 0 -1 -1 0 0 14 125 79 139 ?84
 96 73 26 127 -0 0 84 96 42 81 1 139 218 117 125 140 0 136 119 141 15 73 78 0 71
 125 0 80 255 1 117 0 142 8001 0 0 0 0 3 5 0 0 0 FFFFTFTFFFFFFF2 81 1 140 211 14
3 125 0 139 144 145 146 81 1 136 217 117 96 144 0 131 139 147 81 1 119 219 117 8
4 148 0 139 114 149 83 255 3 141 1 1 1 81 1 148 203 143 84 0 119 150 130 151 83
 3 149 1 1 1 80 1 143 152 153 9000 1 1 1 1 1 1 1 1 0 FFFFTFTFFFFFFF1 81 1 150 20
1 143 115 0 120 118 148 154 81 1 130 205 143 36 0 128 148 135 155 82 255 1 151 1
54140813 81 1 135 207 143 92 0 131 130 144 156 82 1 155 161480848 81 1 144 209 1
43 96 0 136 135 140 157 82 1 156 161218701 82 1 157 160956557 81 1 120 221 117 1
15 150 0 114 158 159 81 1 118 199 143 113 0 114 0 150 160 82 1 154 -1681522544 8
2 1 160 159776909 81 1 158 222 117 122 145 0 120 0 161 83 3 159 1 1 1 14 122 154
 158 ?0 115 162 26 163 +0 0 0 115 42 81 1 145 213 143 122 0 158 140 0 164 83 3 1
61 1 1 1 82 1 164 -1683488624 15 162 156 0 165 122 0 50 163 164 0 122 0 124 0 +.
01335841455400514 .0075 0 1 0 0 0 0 -1 51 255 124 162 0 115 163 126 0 -.01335841
455400514 .0075 0 -1 0 0 .0025 0 0 1 50 126 2 0 84 124 116 0 +0 .015 0 0 1 0 0 0
 1 17 165 0 162 165 165 0 166 105 0 0 +17 166 0 123 166 166 0 165 105 0 0 -16 10
5 146 0 ?165 102 0 167 0 0 12 31 167 166 0 105 0 100 0 +.01335841455400514 .0075
 0 1 0 0 0 0 -1 .0025 30 100 5 0 88 167 90 0 +.00835841455400516 .015 -.01828923
42384718 0 0 -1 16 88 4 0 ?49 83 75 100 0 0 12 15 123 152 0 166 115 134 79 255 1
4 153 SWEntUnchanged83 3 147 1 1 1 82 1 146 160694413 79 15 142 SDL/TYSA_COLOUR8
3 3 137 1 1 1 83 3 132 1 1 1 83 3 121 1 1 1 17 87 0 110 76 89 32 49 88 0 0 -17 5
3 0 73 51 71 32 76 98 0 87 -17 51 0 73 70 53 46 45 52 0 0 -17 70 0 73 71 51 63 6
6 94 0 74 +19 37 95 0 12 0 30 26 S0 74 4 CI16 index_map_offset0 0 1 dCCZ20 35 4
 0 0 145 33 158 23 0 0 0 0 0 0 0 0 0 0 0 0 0 0 0 0 81 2 33 179 168 12 0 23 0 0 1
69 0 80 2 168 170 171 8004 0 0 0 0 3 5 0 0 0 FFTFFFFFFFFFFF2 3 83 1 169 1e3 79 1
6 171 SDL/TYSA_DENSITY80 1 5 172 173 8017 0 0 0 0 0 0 0 0 0 TTTTTTTTTTTTTF3 84 2
55 5 34 dizuo79 13 173 SDL/TYSA_NAME81 1 10 239 5 7 0 0 0 0 174 70 11 0 4 T7 0 0
 3 20 1 175 175 13 13 94 0 7 0 176 0 0 177 0 51 14 89 0 178 179 0 0 -0 .0075 .00
2 0 0 -1 .005 -1 0 0 30 15 93 0 18 180 0 0 +.005 .0075 .002 0 0 -1 29 16 70 0 18
1 182 0 -.005 .0075 0 19 17 28 0 7 177 0 183 V0 16 18 77 0 ?184 0 185 15 0 0 7 1
8 19 25 0 186 0 187 188 ?7 17 186 0 189 190 191 19 192 193 0 194 +18 187 22 0 19
1 19 195 196 ?7 29 188 27 0 19 196 197 -.005 .0075 .002 29 196 24 0 187 198 188
 -.005 .0475 .002 29 197 73 0 199 188 200 .005 .0075 0 18 199 64 0 201 202 0 197
 ?7 29 200 72 0 202 197 182 .005 .0475 0 18 202 63 0 203 204 199 200 ?7 29 182 7
1 0 204 200 16 -.005 .0475 0 18 204 62 0 205 181 202 182 ?7 17 205 0 206 207 208
 204 209 210 0 211 +18 181 61 0 212 213 204 16 ?7 17 212 0 214 194 211 181 215 2
16 0 217 +18 213 16 0 218 195 181 219 ?7 17 218 0 220 184 221 213 222 223 0 190
 -18 195 19 0 222 187 213 198 ?7 29 219 18 0 213 0 198 .005 .0075 .002 29 198 21
 0 195 219 196 .005 .0475 .002 17 222 0 189 191 190 195 218 223 0 221 +15 189 3
 0 190 176 224 17 191 0 189 186 222 187 225 226 0 207 +17 190 0 189 222 186 213
 227 228 0 229 +16 223 7 0 ?222 226 228 230 0 0 7 17 221 0 220 218 203 195 208 1
85 0 225 -15 220 82 0 203 231 0 17 203 0 220 221 184 202 201 232 0 208 +17 208 0
 206 205 225 202 221 185 0 209 +16 185 76 0 ?208 18 233 180 0 0 7 17 225 0 206 2
08 207 195 191 226 0 0 -15 206 80 0 205 234 0 17 207 0 206 225 205 187 211 233 0
 192 -16 226 10 0 ?191 193 223 235 0 0 7 16 193 13 0 ?186 236 226 237 0 0 7 31 2
35 11 0 226 230 237 0 +0 .0475 .002 0 0 1 1 0 0 .005 30 230 8 0 223 238 235 0 +.
005 .0075 .002 0 1 0 30 237 14 0 193 235 239 0 +-.005 .0075 .002 0 -1 0 31 239 6
9 0 240 237 241 0 +0 .0075 0 0 0 1 1 0 0 .005 16 240 57 0 ?242 232 243 239 0 0 7
 30 241 68 0 232 239 244 0 +.005 .0075 0 0 1 0 16 232 53 0 ?203 210 240 241 0 0
 7 31 244 67 0 210 241 245 0 +0 .0475 0 0 0 1 1 0 0 .005 16 210 49 0 ?205 216 23
2 244 0 0 7 30 245 66 0 216 244 246 0 +-.005 .0075 0 0 -1 0 16 216 45 0 ?212 228
 210 245 0 0 7 30 246 90 0 236 245 247 0 +-.005 .0075 .002 0 0 -1 16 236 74 0 ?2
17 233 193 246 0 0 7 30 247 91 0 233 246 180 0 +-.005 .0475 .002 0 0 -1 16 233 7
5 0 ?211 185 236 247 0 0 7 30 180 92 0 185 247 15 0 +.005 .0475 .002 0 0 -1 17 2
11 0 214 212 192 204 207 233 0 215 +15 214 78 0 212 248 0 17 192 0 214 211 194 1
87 186 193 0 0 -17 215 0 249 209 250 204 212 216 0 0 -15 249 44 0 250 251 252 17
 209 0 249 201 215 202 205 210 0 0 -17 250 0 249 215 201 181 242 240 0 0 -17 201
 0 249 250 209 199 203 232 0 184 -17 242 0 253 229 217 199 250 240 0 0 +15 253 8
4 0 242 178 0 17 229 0 253 227 242 213 184 18 0 0 -17 217 0 253 242 227 181 194
 236 0 250 +17 227 0 253 217 229 19 190 228 0 0 -17 194 0 214 192 212 19 217 236
 0 227 -16 228 4 0 ?190 223 216 238 0 0 7 31 238 5 0 228 254 230 0 +0 .0075 .002
 0 0 1 1 0 0 .005 31 254 142 0 255 256 238 0 +0 .0075 0 0 0 1 1 0 0 .0025 16 255
 120 0 ?257 243 258 254 0 0 7 31 256 143 0 243 259 254 0 +0 .0075 .002 0 0 1 1 0
 0 .0025 16 243 123 0 ?260 240 255 256 0 0 7 31 259 180 0 261 262 256 0 +0 .0475
 0 0 0 1 1 0 0 .0025 16 261 158 0 ?263 258 0 259 0 0 7 31 262 181 0 258 0 259 0
 +0 .0475 .002 0 0 1 1 0 0 .0025 16 258 161 0 ?264 255 261 262 0 0 7 17 264 0 26
5 264 264 0 266 258 0 0 +15 265 167 0 264 267 268 17 266 0 224 266 266 0 264 258
 0 0 -15 224 152 0 266 176 0 14 176 155 269 ?251 0 270 13 271 +0 0 251 0 183 81
 1 269 231 117 176 272 0 0 273 274 14 251 149 273 ?178 176 249 13 275 -0 0 178 1
76 183 15 270 114 0 276 176 189 50 271 2 0 176 277 275 0 +0 .0075 .002 0 0 1 1 0
 0 13 183 29 0 0 0 0 0 0 17 176 51 277 139 0 278 279 271 0 -0 .0075 .002 0 0 -1
 .0025 -1 0 0 50 275 65 0 251 271 280 0 +0 .0075 0 0 0 1 1 0 0 50 280 86 0 248 2
75 281 0 +-.005 .0075 .002 1 0 0 0 0 -1 14 248 79 282 ?278 234 214 13 280 -0 0 2
78 234 183 51 281 87 0 234 280 179 0 -0 .0475 .002 0 0 -1 .005 -1 0 0 14 234 81
 283 ?248 231 206 13 281 -0 0 248 231 183 50 179 88 0 231 281 14 0 +.005 .0075 .
002 -1 0 0 0 0 1 14 231 83 284 ?234 178 220 13 179 -0 0 234 178 183 81 1 284 234
 117 231 285 0 286 283 287 14 178 85 286 ?231 251 253 13 14 -0 0 231 251 183 81
 1 286 233 117 178 288 0 273 284 289 81 1 288 225 143 178 0 286 285 290 291 81 1
 273 232 117 251 292 0 269 286 293 83 3 289 1 1 1 81 1 292 217 143 251 0 273 272
 294 295 83 3 293 1 1 1 81 1 272 215 143 176 0 269 0 292 296 81 1 294 219 143 24
8 0 282 292 297 298 82 1 295 -1371733869 81 1 282 236 117 248 294 0 283 299 300
 81 1 297 221 143 234 0 283 294 285 301 82 1 298 -1384447853 81 1 283 235 117 23
4 297 0 284 282 302 81 1 285 223 143 231 0 284 297 288 303 82 1 301 -1384185709
 82 1 303 -1383923565 83 3 302 1 1 1 81 1 299 237 117 278 290 0 282 304 305 83 3
 300 1 1 1 14 278 126 299 ?267 248 306 13 277 +0 0 267 248 183 81 1 290 227 143
 278 0 299 288 307 308 81 1 304 238 117 267 307 0 299 0 309 83 3 305 1 1 1 14 26
7 164 304 ?0 278 265 13 279 +0 0 0 278 183 81 1 307 229 143 267 0 304 290 0 310
 83 3 309 1 1 1 82 1 310 -1374748525 51 279 177 0 267 0 277 0 -0 .0475 .002 0 0
 -1 .0025 -1 0 0 82 1 308 -1378811757 15 306 129 0 260 278 311 17 260 0 306 260
 260 0 276 243 0 0 +15 311 130 0 312 278 0 17 312 0 311 312 312 0 257 255 0 0 -1
7 257 0 252 257 257 0 312 255 0 0 +15 252 109 0 257 251 313 15 313 147 0 263 251
 0 17 263 0 313 263 263 0 314 261 0 0 +17 314 0 268 314 314 0 263 261 0 0 -15 26
8 168 0 314 267 0 17 276 0 270 276 276 0 260 243 0 0 -82 1 296 -1371209581 82 1
 291 -1383661421 83 3 287 1 1 1 83 3 274 1 1 1 17 184 0 220 203 218 199 229 18 0
 242 +19 177 95 0 7 0 17 13 S0 74 20 175 3 0 0 307 304 10 0 0 0 0 0 0 0 0 0 0 0
 0 0 0 0 0 0 84 8 174 link_xia74 20 6 1 0 0 2 0 0 0 0 0 0 0 0 0 0 0 0 0 0 0 0 0
 0 0 1 0 
